<?xml version="1.0" standalone="no"?>
<!DOCTYPE svg PUBLIC "-//W3C//DTD SVG 20010904//EN"
 "http://www.w3.org/TR/2001/REC-SVG-20010904/DTD/svg10.dtd">
<svg version="1.0" xmlns="http://www.w3.org/2000/svg"
 width="300.000000pt" height="300.000000pt" viewBox="0 0 300.000000 300.000000"
 preserveAspectRatio="xMidYMid meet">
<metadata>
Created by potrace 1.10, written by Peter Selinger 2001-2011
</metadata>
<g transform="translate(0.000000,300.000000) scale(0.100000,-0.100000)"
fill="#000000" stroke="none">
<path d="M1480 2231 c-14 -4 -40 -16 -58 -25 l-32 -17 0 -83 c0 -45 -3 -151
-7 -234 -6 -152 -6 -152 -30 -152 -37 0 -83 -28 -94 -57 -6 -18 -3 -90 11
-237 11 -116 23 -221 25 -233 5 -21 2 -21 -69 12 l-75 34 -20 -32 c-25 -39
-25 -52 -1 173 25 230 25 283 4 301 -10 8 -48 15 -91 18 l-74 3 6 64 7 64 -91
0 c-50 0 -94 0 -98 0 -5 0 -9 -26 -11 -59 l-3 -59 -47 0 c-60 0 -97 -15 -117
-46 -15 -22 -16 -37 -6 -126 6 -55 11 -107 11 -114 0 -9 -14 -8 -58 6 -97 32
-146 -6 -84 -65 27 -26 99 -57 132 -57 21 0 26 -19 36 -138 6 -77 9 -86 39
-117 33 -32 36 -33 150 -40 64 -4 137 -5 162 -2 42 4 77 -7 337 -109 170 -67
297 -112 308 -108 10 3 31 19 48 35 23 23 30 40 30 67 0 61 -9 78 -53 100 -34
17 -37 21 -19 21 37 1 90 28 96 48 9 28 56 499 56 559 0 61 -12 74 -75 82 -37
4 -45 8 -46 26 0 11 -8 120 -17 241 l-17 220 -35 17 c-45 21 -98 29 -130 19z
m110 -27 c35 -14 40 -20 40 -48 0 -17 7 -114 15 -216 20 -261 23 -238 -29
-245 -25 -4 -82 -3 -128 1 -78 9 -83 10 -87 34 -2 14 0 121 4 238 l7 213 37
19 c45 24 88 25 141 4z m-651 -403 c11 -6 16 -20 15 -38 -1 -15 -3 -34 -3 -40
-1 -9 -23 -13 -76 -13 l-75 0 0 34 c0 60 7 66 67 66 30 0 62 -4 72 -9z m407
-109 l-38 -17 6 -200 c4 -110 11 -225 16 -255 9 -56 7 53 -6 322 -5 116 -5
117 19 133 22 14 40 15 124 7 54 -5 121 -6 148 -2 32 4 66 1 92 -8 39 -13 42
-16 49 -59 5 -33 0 -76 -19 -157 -14 -61 -29 -158 -32 -216 -3 -58 -10 -109
-14 -113 -4 -4 -63 -11 -130 -14 -120 -6 -123 -6 -184 23 -34 15 -63 29 -63
29 -1 0 -12 107 -24 238 -25 265 -24 280 32 296 52 15 67 11 24 -7z m-649 -10
l-38 -15 3 -149 c3 -134 -1 -164 -16 -140 -10 16 -28 242 -22 268 7 26 54 54
91 53 13 -1 7 -6 -18 -17z m239 4 c70 -6 148 -36 158 -61 10 -28 7 -59 -20
-170 -19 -80 -25 -127 -22 -186 3 -69 1 -78 -13 -74 -9 3 -92 41 -185 84
l-169 78 4 144 c1 79 5 147 8 152 14 24 81 46 128 42 28 -3 77 -7 111 -9z
m818 -1 c14 -3 26 -14 30 -28 3 -13 -7 -149 -23 -303 -34 -324 -30 -314 -135
-314 -48 1 -72 7 -116 31 l-55 30 48 -4 c74 -7 189 9 202 27 7 9 15 69 18 133
3 65 15 156 26 203 21 86 26 146 15 187 -4 16 -18 26 -45 33 -43 12 -54 23
-14 15 14 -3 36 -7 49 -10z m-626 -23 c15 -20 15 -12 -8 -227 -11 -99 -20
-199 -20 -222 0 -32 -4 -43 -15 -43 -22 0 -19 124 6 240 27 126 33 172 25 214
-6 31 -12 37 -54 50 l-47 15 50 -5 c29 -3 55 -12 63 -22z m-578 -252 c-8 -5
-13 -10 -10 -11 3 0 21 -2 39 -5 19 -2 44 -13 55 -23 12 -11 93 -52 181 -91
235 -106 275 -128 269 -144 -7 -17 -3 -19 -244 94 -96 46 -200 93 -230 106
-30 13 -54 28 -53 34 2 5 -15 13 -37 16 -59 10 -53 34 9 34 27 0 32 -3 21 -10z
m121 -112 c0 -2 4 -40 8 -86 12 -121 14 -122 175 -122 72 0 149 5 171 10 22 5
41 7 43 6 2 -2 -4 -20 -12 -40 l-15 -36 -150 0 -150 0 -35 30 c-38 33 -42 46
-51 163 -5 53 -3 77 4 77 6 0 11 -1 12 -2z m197 -99 l163 -74 -68 -7 c-86 -10
-202 -1 -229 17 -13 8 -24 29 -28 52 -4 21 -9 51 -12 67 -4 16 -2 27 2 24 5
-2 82 -38 172 -79z m647 -146 c88 -41 166 -82 173 -91 6 -9 12 -35 12 -58 0
-35 -5 -47 -31 -68 -17 -14 -35 -26 -42 -26 -6 0 -134 48 -284 107 -236 92
-273 109 -273 127 1 28 33 98 65 140 l26 34 97 -45 c53 -25 169 -79 257 -120z"/>
<path d="M2063 2187 l-43 -21 0 -81 c0 -45 -3 -150 -7 -233 l-6 -151 -26 -6
c-54 -12 -80 -28 -91 -55 -16 -38 33 -541 57 -580 31 -53 57 -60 223 -61 164
0 194 8 205 54 9 36 55 497 55 547 0 59 -21 80 -77 80 l-41 0 -6 63 c-16 178
-26 323 -26 371 0 54 0 54 -43 75 -55 27 -120 26 -174 -2z m162 -11 c27 -12
35 -21 35 -41 0 -14 7 -118 15 -232 9 -113 14 -212 11 -220 -6 -14 -146 -19
-218 -7 l-38 7 0 96 c0 53 3 160 7 237 l6 142 31 15 c40 20 107 21 151 3z
m-215 -492 c0 -3 -16 -12 -35 -20 l-35 -14 0 -127 c0 -70 5 -190 11 -267 15
-185 15 -186 167 -186 59 0 130 3 159 6 64 8 69 19 77 164 2 58 14 146 26 195
15 62 20 108 17 148 -3 32 -7 60 -9 62 -1 2 -21 6 -43 9 l-40 5 37 -10 c35
-10 37 -13 43 -62 5 -37 0 -76 -15 -137 -12 -47 -25 -139 -30 -205 -4 -66 -11
-127 -15 -136 -14 -35 -308 -37 -337 -2 -16 19 -37 250 -38 410 l0 122 28 15
c22 11 45 12 125 3 74 -8 115 -8 171 2 87 14 124 7 137 -25 9 -24 -41 -549
-56 -586 -13 -32 -71 -41 -208 -35 -143 7 -168 16 -192 70 -8 18 -23 138 -36
284 -25 286 -24 292 48 311 21 5 39 10 41 11 1 1 2 -1 2 -5z"/>
</g>
</svg>
